<svg id="Layer_1" data-name="Layer 1" xmlns="http://www.w3.org/2000/svg" xmlns:xlink="http://www.w3.org/1999/xlink" viewBox="0 0 737.57 734.7"><defs><style>.cls-1{fill:url(#linear-gradient);}.cls-2{fill:#11598b;}.cls-3{fill:#f5f5f5;}.cls-4{fill:#fff;}.cls-5{opacity:0.3;isolation:isolate;}.cls-6{fill:url(#linear-gradient-2);}.cls-7{fill:url(#linear-gradient-3);}</style><linearGradient id="linear-gradient" x1="600.02" y1="-81.31" x2="600.02" y2="653.39" gradientTransform="matrix(1, 0, 0, -1, -231.2, 653.36)" gradientUnits="userSpaceOnUse"><stop offset="0" stop-color="gray" stop-opacity="0.25"/><stop offset="0.54" stop-color="gray" stop-opacity="0.12"/><stop offset="1" stop-color="gray" stop-opacity="0.1"/></linearGradient><linearGradient id="linear-gradient-2" x1="353.77" y1="318.33" x2="353.77" y2="441.75" gradientUnits="userSpaceOnUse"><stop offset="0" stop-opacity="0.12"/><stop offset="0.55" stop-opacity="0.09"/><stop offset="1" stop-opacity="0.02"/></linearGradient><linearGradient id="linear-gradient-3" x1="354.86" y1="159.64" x2="354.86" y2="283.07" xlink:href="#linear-gradient-2"/></defs><title>mail_loading</title><path class="cls-1" d="M737.6,301.76c.06-27.46-5.63-34.67-18-45.11L385.88,5.49a27.21,27.21,0,0,0-32.68-.13L25.38,249.47C12.94,259.85,1.29,272,1.23,299.41H.87L0,675.41H0v16.74a41,41,0,0,0,40.9,41.1H57.11l310.85.69,327,.73a41,41,0,0,0,41.1-40.9v0l.87-392Z" transform="translate(-0.03 0.03)"/><path class="cls-2" d="M7,301.16l723,1.64h0l-.8,350a71.78,71.78,0,0,1-71.92,71.61L76.53,723.09A70.47,70.47,0,0,1,6.22,652.46L7,301.16Z" transform="translate(-0.03 0.03)"/><path class="cls-3" d="M7,301.14,6.22,666.76a56.16,56.16,0,0,0,56,56.28L673,724.36" transform="translate(-0.03 0.03)"/><path class="cls-4" d="M730.07,302.75l-.81,365.61a56.16,56.16,0,0,1-56.28,56L62.25,723" transform="translate(-0.03 0.03)"/><path class="cls-2" d="M353.13,15.27l-322,237.32C18.91,262.68,7.47,274.45,7.41,301.15l723.39,2.29c.06-26.7-5.53-33.71-17.7-43.86L385.23,15.36A27,27,0,0,0,353.13,15.27Z" transform="translate(-0.03 0.03)"/><path class="cls-5" d="M353.13,15.27l-322,237.32C18.91,262.68,7.47,274.45,7.41,301.15l723.39,2.29c.06-26.7-5.53-33.71-17.7-43.86L385.23,15.36A27,27,0,0,0,353.13,15.27Z" transform="translate(-0.03 0.03)"/><path class="cls-6" d="M354.32,441.75a141.09,141.09,0,0,0,140-123.42H458.64a105.8,105.8,0,0,1-193,40l43.57-40H213.26v88.16l26.11-24a141,141,0,0,0,115,59.26" transform="translate(-0.03 0.03)"/><path class="cls-7" d="M354.32,159.64a141.09,141.09,0,0,0-140,123.43H250a105.82,105.82,0,0,1,194.67-37.45l-37.45,37.45h88.16V194.91l-25.25,25.25A140.85,140.85,0,0,0,354.32,159.64Z" transform="translate(-0.03 0.03)"/><path class="cls-4" d="M354.32,164.76A136,136,0,0,0,219.43,283.7h34.34a102,102,0,0,1,187.62-36.09l-36.1,36.09h85v-85l-24.34,24.34A135.72,135.72,0,0,0,354.32,164.76Z" transform="translate(-0.03 0.03)"/><path class="cls-4" d="M354.32,436.64A136,136,0,0,0,489.2,317.69H454.86a102,102,0,0,1-186,38.59l42-38.59H218.38v85l25.16-23.12a135.83,135.83,0,0,0,110.78,57.11" transform="translate(-0.03 0.03)"/></svg>