<svg xmlns="http://www.w3.org/2000/svg" width="35.84mm" height="42.46mm" viewBox="0 0 101.6 120.35"><title>logo</title><g id="Pfeil_Oben" data-name="Pfeil Oben"><path d="M67.34,60.22A16.54,16.54,0,1,1,50.8,43.68,16.55,16.55,0,0,1,67.34,60.22Z" style="fill:#ffcb05"/><path d="M97.57,40.37,87.14,44.79A39.44,39.44,0,0,1,42.2,98.73l8.11-11.48L12.86,85.6l14.07,34.75,8.31-11.77A50.81,50.81,0,0,0,97.57,40.37Z" style="fill:#ffcb05"/><path d="M88.63,34.69,74.42,0,66.15,11.81A50.81,50.81,0,0,0,4,80l10.44-4.42a39.43,39.43,0,0,1,44.8-53.91L51.17,33.2Z" style="fill:#ffcb05"/></g></svg>